PathFileType	4	(X/Y/Z)	./resultDataOpenSim/trcMotMarkerGrf/sub09/qtm-13-06.trc
DataRate	CameraRate	NumFrames	NumMarkers	Units	OrigDataRate	OrigDataStartFrame	OrigNumFrames
250.000000	250.000000	6	24	m	250.000000	359	478
Frame#	Time	L.Toe.Tip			R.Toe.Tip			L.Ankle.Lat			R.Ankle.Lat			L.Ankle.Med			R.Ankle.Med			L.Heel			R.Heel			L.Knee.Lat			R.Knee.Lat			L.Knee.Med			R.Knee.Med			L.Thigh.Upper			R.Thigh.Upper			L.ASIS			R.ASIS			V.Sacral			L.Acromium			R.Acromium			C7			L.Elbow			R.Elbow			L.Wrist.Lat			R.Wrist.Lat
		X1	Y1	Z1	X2	Y2	Z2	X3	Y3	Z3	X4	Y4	Z4	X5	Y5	Z5	X6	Y6	Z6	X7	Y7	Z7	X8	Y8	Z8	X9	Y9	Z9	X10	Y10	Z10	X11	Y11	Z11	X12	Y12	Z12	X13	Y13	Z13	X14	Y14	Z14	X15	Y15	Z15	X16	Y16	Z16	X17	Y17	Z17	X18	Y18	Z18	X19	Y19	Z19	X20	Y20	Z20	X21	Y21	Z21	X22	Y22	Z22	X23	Y23	Z23	X24	Y24	Z24

359	1.432	0.93774158	0.11427701	-0.072748052	1.1153881	0.039704069	0.06107596	0.85576223	0.24083151	-0.10584146	0.97021434	0.057534587	0.1017796	0.87987371	0.23338857	-0.0097132774	0.97707229	0.093824587	0.0085314826	0.77463407	0.2571199	-0.061212032	0.89719924	0.039270203	0.057024757	1.1685577	0.50028087	-0.11861403	1.1025568	0.49396665	0.15067167	1.1710193	0.49117816	0.007880213	1.078152	0.48495105	0.025924986	0.99954994	0.87815136	-0.14976331	1.0093319	0.89263712	0.21971355	1.0745131	0.96477221	-0.092139494	1.089226	0.97417361	0.14470116	0.91652717	1.0304199	0.029709999	1.1015813	1.4162082	-0.14634055	1.0858343	1.4315309	0.18404255	1.02763	1.4766124	0.016931905	0.94086167	1.0808088	-0.19094375	0.93616338	1.095233	0.27699715	1.0638338	0.84844866	-0.22402449	1.1139664	0.88132051	0.29389716
360	1.436	0.95562831	0.11253046	-0.072742788	1.1154092	0.039670391	0.061002817	0.87057775	0.23687835	-0.10571515	0.97033525	0.057817133	0.10158771	0.89546026	0.22989611	-0.0098162175	0.97741916	0.094137148	0.0083525536	0.78906268	0.25120664	-0.061088185	0.89744291	0.039723404	0.056862672	1.1780883	0.50291211	-0.11851314	1.1043341	0.49395107	0.1505536	1.1812895	0.49428454	0.0080844073	1.0794347	0.48498639	0.025955729	1.0058795	0.87971674	-0.15009303	1.015096	0.89339795	0.21925724	1.0801971	0.96632046	-0.092294604	1.0947181	0.97511508	0.14456142	0.92202105	1.031478	0.029554496	1.1063469	1.4173783	-0.14676383	1.091128	1.4329496	0.18361352	1.0326487	1.4777805	0.016579758	0.94515844	1.0823385	-0.19100613	0.94206476	1.0963219	0.27687882	1.0668794	0.84951656	-0.22518385	1.1211715	0.88335128	0.29286948
361	1.44	0.97370715	0.110779	-0.072720621	1.1154365	0.039620152	0.060935638	0.88551403	0.23274946	-0.10559162	0.97047344	0.058089572	0.10135416	0.911254	0.22628381	-0.0099391778	0.97776068	0.094519487	0.0082181697	0.80362792	0.24506261	-0.060907644	0.89776135	0.040093513	0.056724097	1.1873637	0.50551774	-0.11848796	1.1059794	0.49394183	0.1504301	1.1909239	0.49729927	0.0080791992	1.0806507	0.4850089	0.025962929	1.0122715	0.88119273	-0.1503954	1.0202961	0.89397738	0.21908864	1.0858687	0.96779518	-0.092454788	1.1002034	0.97600972	0.14442401	0.92753224	1.0324718	0.029369073	1.1111135	1.4185035	-0.14719964	1.0964226	1.4342985	0.18318706	1.037664	1.4788937	0.016235803	0.94947943	1.0838081	-0.19107177	0.94794834	1.0973557	0.27676898	1.0699608	0.85054213	-0.22631754	1.1283312	0.88531615	0.29183628
362	1.444	0.99203511	0.10901711	-0.072709343	1.1155084	0.039576174	0.060868344	0.90059309	0.22845924	-0.10547959	0.9706133	0.058355449	0.10106885	0.92704592	0.22257114	-0.01001867	0.97818311	0.09497301	0.0081028913	0.81835956	0.23870082	-0.060692514	0.89811492	0.04039842	0.056492983	1.1965231	0.50812455	-0.11849379	1.1075787	0.49392396	0.1503564	1.1997751	0.50018554	0.0078487058	1.081928	0.48500087	0.025995487	1.0186489	0.88258059	-0.15073368	1.0249093	0.89439853	0.21919964	1.0915255	0.96919891	-0.092619102	1.1056687	0.97684947	0.14430277	0.93305867	1.0334012	0.029160619	1.1158906	1.4195989	-0.14766676	1.1017136	1.4355818	0.18276985	1.0426826	1.4799585	0.01589459	0.95385327	1.0852402	-0.19110628	0.9538168	1.0983322	0.27667095	1.073078	0.85152285	-0.22742611	1.135448	0.88721456	0.29079842
363	1.448	1.0105873	0.10722284	-0.072725008	1.1156608	0.039554661	0.060787272	0.91583588	0.22402405	-0.10538428	0.97073132	0.058628489	0.10073328	0.94272138	0.21876798	-0.010027913	0.97867641	0.095447238	0.0079419687	0.83330863	0.23214431	-0.060496945	0.89840304	0.040704105	0.056074585	1.2056505	0.51069437	-0.11850532	1.1093137	0.49390094	0.15036325	1.208288	0.50295951	0.0075420999	1.0833713	0.48499383	0.026151202	1.0249342	0.88387902	-0.15115196	1.0293152	0.89478816	0.21937889	1.097182	0.97053198	-0.092794827	1.1111086	0.97762905	0.14419672	0.93859129	1.0342748	0.028933915	1.1206822	1.4206626	-0.14816346	1.1070079	1.4368191	0.18236381	1.0477069	1.4809753	0.015550058	0.95830533	1.0866549	-0.19107035	0.95967032	1.0992485	0.27658633	1.076236	0.85245542	-0.22851432	1.142531	0.8890478	0.28975403
364	1.452	1.0292845	0.10536517	-0.072769153	1.1158892	0.039551729	0.060684579	0.9312466	0.21946351	-0.10530623	0.97081024	0.058922975	0.10036056	0.95833234	0.21487813	-0.0099804854	0.97904287	0.095852719	0.007658965	0.84851082	0.22542556	-0.06036672	0.89857273	0.041072526	0.055462911	1.214708	0.51317927	-0.11854262	1.1112319	0.49388183	0.15043857	1.2168377	0.50563179	0.0072738166	1.0849947	0.48501268	0.026455626	1.0310632	0.88508578	-0.15163137	1.0339273	0.89526291	0.21941604	1.1028636	0.97179118	-0.092994167	1.1165391	0.97835772	0.14408801	0.94412293	1.0350969	0.028691032	1.1254796	1.4216707	-0.14865901	1.1123172	1.4380328	0.18196476	1.0527371	1.4819423	0.015206348	0.96282928	1.0880392	-0.19097282	0.96551475	1.100107	0.27651673	1.0794389	0.85333864	-0.229587	1.1495929	0.89081777	0.28869955
